<svg width="26" height="26" viewBox="0 0 26 26" fill="none" xmlns="http://www.w3.org/2000/svg">
<path d="M9.75002 23.8334C10.3483 23.8334 10.8334 23.3484 10.8334 22.7501C10.8334 22.1518 10.3483 21.6667 9.75002 21.6667C9.15171 21.6667 8.66669 22.1518 8.66669 22.7501C8.66669 23.3484 9.15171 23.8334 9.75002 23.8334Z" fill="#213F74" stroke="#213F74" stroke-width="2" stroke-linecap="round" stroke-linejoin="round"/>
<path d="M21.6666 23.8334C22.265 23.8334 22.75 23.3484 22.75 22.7501C22.75 22.1518 22.265 21.6667 21.6666 21.6667C21.0683 21.6667 20.5833 22.1518 20.5833 22.7501C20.5833 23.3484 21.0683 23.8334 21.6666 23.8334Z" fill="#213F74" stroke="#213F74" stroke-width="2" stroke-linecap="round" stroke-linejoin="round"/>
<path d="M1.08331 1.08325H5.41665L8.31998 15.5891C8.41904 16.0878 8.69038 16.5359 9.08649 16.8547C9.48259 17.1736 9.97824 17.343 10.4866 17.3333H21.0166C21.5251 17.343 22.0207 17.1736 22.4168 16.8547C22.8129 16.5359 23.0842 16.0878 23.1833 15.5891L24.9166 6.49992H6.49998" stroke="#213F74" stroke-width="2" stroke-linecap="round" stroke-linejoin="round"/>
</svg>
