<svg width="45" height="35" fill="none" xmlns="http://www.w3.org/2000/svg"><path fill-rule="evenodd" clip-rule="evenodd" d="M43.895 1.542c2.689 1.76-5.165 14.25-7.999 17.915.406-.845.99-1.98 1.639-3.24 1.603-3.112 3.595-6.981 4.235-9.09.974-3.208 0-5.585-4.014-4.456-3.241.912-6.7 2.497-13.713 13.25 3.269 4.867 4.175 8.482 3.442 12.062a6.261 6.261 0 01-2.038 3.461c2.868.146 9.355.01 14.434-1.649-1.575 1.793-7.255 4.896-17.385 2.971-3.6 1.12-12.349 2.092-18.535-2.97 1.843.863 7.467 2.39 15.315 1.653-.855-.752-1.656-1.88-2.328-3.466-1.361-3.209.952-8 3.812-12.194C14.21 5.842 6.644.016 3.076 3.176.862 5.137 6.096 14.987 8.86 19.456 4.512 14.357-1.444 4.177.715 1.543c2.361-2.881 12.052.31 19.922 9.864a71.15 71.15 0 011.719 2.166c2.473-3.268 4.93-5.841 5.542-6.444 1.476-1.456 10.684-9.062 15.997-5.586zm-21.31 17.172a79.843 79.843 0 00-.153-.258c-7.351 11.912-1.491 12.498-.26 12.498 1.24 0 7.35-.505.413-12.24z" fill="#fff"/></svg>