<svg width="20" height="20" fill="none" xmlns="http://www.w3.org/2000/svg"><g clip-path="url(#clip0_0_44)"><path d="M10.001.91A9.09 9.09 0 0119.092 10a9.09 9.09 0 01-9.09 9.091 9.05 9.05 0 01-4.574-1.232L.914 19.091l1.229-4.516A9.048 9.048 0 01.91 10 9.09 9.09 0 0110.001.91zM6.903 5.726l-.182.008a.874.874 0 00-.338.09 1.176 1.176 0 00-.267.208c-.11.103-.171.192-.238.278a2.482 2.482 0 00-.514 1.525c.002.446.118.88.3 1.285.372.82.983 1.688 1.79 2.493.195.193.386.388.592.569a8.588 8.588 0 003.49 1.86l.517.079c.168.009.336-.004.505-.012a1.81 1.81 0 00.758-.21 4.38 4.38 0 00.348-.2s.039-.025.113-.082c.123-.09.199-.155.3-.261a1.04 1.04 0 00.191-.275c.071-.148.142-.431.171-.667.022-.18.016-.278.013-.338-.004-.098-.085-.199-.173-.242l-.529-.237s-.79-.344-1.274-.564a.45.45 0 00-.16-.038.438.438 0 00-.344.116c-.005-.002-.066.05-.723.846a.318.318 0 01-.334.118 1.314 1.314 0 01-.174-.06c-.113-.047-.152-.065-.229-.098a5.477 5.477 0 01-1.432-.911c-.114-.1-.22-.21-.33-.315a5.724 5.724 0 01-.927-1.153l-.054-.086a.84.84 0 01-.092-.187c-.035-.133.055-.24.055-.24s.22-.242.324-.373c.1-.127.184-.251.239-.34.107-.172.14-.35.084-.487A75.69 75.69 0 007.59 5.97c-.053-.122-.213-.21-.357-.226a4.054 4.054 0 00-.147-.015 3.076 3.076 0 00-.367.004l.183-.008v.001z" fill="#00B649"/></g><defs><clipPath id="clip0_0_44"><path fill="#fff" d="M0 0h20v20H0z"/></clipPath></defs></svg>