<svg width="29" height="27" viewBox="0 0 29 27" fill="none" xmlns="http://www.w3.org/2000/svg">
<path d="M9 25C9.55228 25 10 24.5523 10 24C10 23.4477 9.55228 23 9 23C8.44772 23 8 23.4477 8 24C8 24.5523 8.44772 25 9 25Z" stroke="white" stroke-width="2" stroke-linecap="round" stroke-linejoin="round"/>
<path d="M20 25C20.5523 25 21 24.5523 21 24C21 23.4477 20.5523 23 20 23C19.4477 23 19 23.4477 19 24C19 24.5523 19.4477 25 20 25Z" stroke="white" stroke-width="2" stroke-linecap="round" stroke-linejoin="round"/>
<path d="M1 4H5L7.68 17.39C7.77144 17.8504 8.02191 18.264 8.38755 18.5583C8.75318 18.8526 9.2107 19.009 9.68 19H19.4C19.8693 19.009 20.3268 18.8526 20.6925 18.5583C21.0581 18.264 21.3086 17.8504 21.4 17.39L23 9H6" stroke="white" stroke-width="1.5" stroke-linecap="round" stroke-linejoin="round"/>
</svg>
